<svg xmlns="http://www.w3.org/2000/svg" viewBox="0 0 1200 630" width="1200" height="630">
  <defs>
    <linearGradient id="bg" x1="0%" y1="0%" x2="100%" y2="100%">
      <stop offset="0%" style="stop-color:#0a0e1a"/>
      <stop offset="40%" style="stop-color:#111b33"/>
      <stop offset="100%" style="stop-color:#0a2a2a"/>
    </linearGradient>
    <linearGradient id="tealGrad" x1="0%" y1="0%" x2="100%" y2="0%">
      <stop offset="0%" style="stop-color:#0e8c73"/>
      <stop offset="100%" style="stop-color:#1abc9c"/>
    </linearGradient>
    <linearGradient id="accentLine" x1="0%" y1="0%" x2="100%" y2="0%">
      <stop offset="0%" style="stop-color:#0e8c73;stop-opacity:0"/>
      <stop offset="20%" style="stop-color:#1abc9c;stop-opacity:1"/>
      <stop offset="80%" style="stop-color:#1abc9c;stop-opacity:1"/>
      <stop offset="100%" style="stop-color:#0e8c73;stop-opacity:0"/>
    </linearGradient>
    <linearGradient id="cardBg" x1="0%" y1="0%" x2="0%" y2="100%">
      <stop offset="0%" style="stop-color:#141e30"/>
      <stop offset="100%" style="stop-color:#0f172a"/>
    </linearGradient>
    <filter id="ds">
      <feDropShadow dx="0" dy="2" stdDeviation="3" flood-color="#000" flood-opacity="0.4"/>
    </filter>
    <filter id="glow">
      <feGaussianBlur stdDeviation="6" result="b"/>
      <feMerge><feMergeNode in="b"/><feMergeNode in="SourceGraphic"/></feMerge>
    </filter>
  </defs>

  <!-- Solid dark background — no white anywhere -->
  <rect width="1200" height="630" fill="url(#bg)"/>

  <!-- Subtle dot grid pattern -->
  <g fill="#1abc9c" opacity="0.04">
    <circle cx="50" cy="50" r="1.5"/><circle cx="100" cy="50" r="1.5"/><circle cx="150" cy="50" r="1.5"/><circle cx="200" cy="50" r="1.5"/><circle cx="250" cy="50" r="1.5"/><circle cx="300" cy="50" r="1.5"/><circle cx="350" cy="50" r="1.5"/><circle cx="400" cy="50" r="1.5"/><circle cx="450" cy="50" r="1.5"/><circle cx="500" cy="50" r="1.5"/><circle cx="550" cy="50" r="1.5"/><circle cx="600" cy="50" r="1.5"/><circle cx="650" cy="50" r="1.5"/><circle cx="700" cy="50" r="1.5"/><circle cx="750" cy="50" r="1.5"/><circle cx="800" cy="50" r="1.5"/><circle cx="850" cy="50" r="1.5"/><circle cx="900" cy="50" r="1.5"/><circle cx="950" cy="50" r="1.5"/><circle cx="1000" cy="50" r="1.5"/><circle cx="1050" cy="50" r="1.5"/><circle cx="1100" cy="50" r="1.5"/><circle cx="1150" cy="50" r="1.5"/>
    <circle cx="50" cy="100" r="1.5"/><circle cx="100" cy="100" r="1.5"/><circle cx="150" cy="100" r="1.5"/><circle cx="200" cy="100" r="1.5"/><circle cx="250" cy="100" r="1.5"/><circle cx="300" cy="100" r="1.5"/><circle cx="350" cy="100" r="1.5"/><circle cx="400" cy="100" r="1.5"/><circle cx="450" cy="100" r="1.5"/><circle cx="500" cy="100" r="1.5"/><circle cx="550" cy="100" r="1.5"/><circle cx="600" cy="100" r="1.5"/><circle cx="650" cy="100" r="1.5"/><circle cx="700" cy="100" r="1.5"/><circle cx="750" cy="100" r="1.5"/><circle cx="800" cy="100" r="1.5"/><circle cx="850" cy="100" r="1.5"/><circle cx="900" cy="100" r="1.5"/><circle cx="950" cy="100" r="1.5"/><circle cx="1000" cy="100" r="1.5"/><circle cx="1050" cy="100" r="1.5"/><circle cx="1100" cy="100" r="1.5"/><circle cx="1150" cy="100" r="1.5"/>
    <circle cx="50" cy="150" r="1.5"/><circle cx="100" cy="150" r="1.5"/><circle cx="150" cy="150" r="1.5"/><circle cx="200" cy="150" r="1.5"/><circle cx="250" cy="150" r="1.5"/><circle cx="300" cy="150" r="1.5"/><circle cx="350" cy="150" r="1.5"/><circle cx="400" cy="150" r="1.5"/><circle cx="450" cy="150" r="1.5"/><circle cx="500" cy="150" r="1.5"/><circle cx="550" cy="150" r="1.5"/><circle cx="600" cy="150" r="1.5"/><circle cx="650" cy="150" r="1.5"/><circle cx="700" cy="150" r="1.5"/><circle cx="750" cy="150" r="1.5"/><circle cx="800" cy="150" r="1.5"/><circle cx="850" cy="150" r="1.5"/><circle cx="900" cy="150" r="1.5"/><circle cx="950" cy="150" r="1.5"/><circle cx="1000" cy="150" r="1.5"/><circle cx="1050" cy="150" r="1.5"/><circle cx="1100" cy="150" r="1.5"/><circle cx="1150" cy="150" r="1.5"/>
    <circle cx="50" cy="200" r="1.5"/><circle cx="100" cy="200" r="1.5"/><circle cx="150" cy="200" r="1.5"/><circle cx="200" cy="200" r="1.5"/><circle cx="250" cy="200" r="1.5"/><circle cx="300" cy="200" r="1.5"/><circle cx="350" cy="200" r="1.5"/><circle cx="400" cy="200" r="1.5"/><circle cx="450" cy="200" r="1.5"/><circle cx="500" cy="200" r="1.5"/><circle cx="550" cy="200" r="1.5"/><circle cx="600" cy="200" r="1.5"/><circle cx="650" cy="200" r="1.5"/><circle cx="700" cy="200" r="1.5"/><circle cx="750" cy="200" r="1.5"/><circle cx="800" cy="200" r="1.5"/><circle cx="850" cy="200" r="1.5"/><circle cx="900" cy="200" r="1.5"/><circle cx="950" cy="200" r="1.5"/><circle cx="1000" cy="200" r="1.5"/><circle cx="1050" cy="200" r="1.5"/><circle cx="1100" cy="200" r="1.5"/><circle cx="1150" cy="200" r="1.5"/>
    <circle cx="50" cy="250" r="1.5"/><circle cx="100" cy="250" r="1.5"/><circle cx="150" cy="250" r="1.5"/><circle cx="200" cy="250" r="1.5"/><circle cx="250" cy="250" r="1.5"/><circle cx="300" cy="250" r="1.5"/><circle cx="350" cy="250" r="1.5"/><circle cx="400" cy="250" r="1.5"/><circle cx="450" cy="250" r="1.5"/><circle cx="500" cy="250" r="1.5"/><circle cx="550" cy="250" r="1.5"/><circle cx="600" cy="250" r="1.5"/><circle cx="650" cy="250" r="1.5"/><circle cx="700" cy="250" r="1.5"/><circle cx="750" cy="250" r="1.5"/><circle cx="800" cy="250" r="1.5"/><circle cx="850" cy="250" r="1.5"/><circle cx="900" cy="250" r="1.5"/><circle cx="950" cy="250" r="1.5"/><circle cx="1000" cy="250" r="1.5"/><circle cx="1050" cy="250" r="1.5"/><circle cx="1100" cy="250" r="1.5"/><circle cx="1150" cy="250" r="1.5"/>
    <circle cx="50" cy="300" r="1.5"/><circle cx="100" cy="300" r="1.5"/><circle cx="150" cy="300" r="1.5"/><circle cx="200" cy="300" r="1.5"/><circle cx="250" cy="300" r="1.5"/><circle cx="300" cy="300" r="1.5"/><circle cx="350" cy="300" r="1.5"/><circle cx="400" cy="300" r="1.5"/><circle cx="450" cy="300" r="1.5"/><circle cx="500" cy="300" r="1.5"/><circle cx="550" cy="300" r="1.5"/><circle cx="600" cy="300" r="1.5"/><circle cx="650" cy="300" r="1.5"/><circle cx="700" cy="300" r="1.5"/><circle cx="750" cy="300" r="1.5"/><circle cx="800" cy="300" r="1.5"/><circle cx="850" cy="300" r="1.5"/><circle cx="900" cy="300" r="1.5"/><circle cx="950" cy="300" r="1.5"/><circle cx="1000" cy="300" r="1.5"/><circle cx="1050" cy="300" r="1.5"/><circle cx="1100" cy="300" r="1.5"/><circle cx="1150" cy="300" r="1.5"/>
  </g>

  <!-- Decorative glow circle behind architecture -->
  <circle cx="440" cy="370" r="220" fill="#1abc9c" opacity="0.03"/>
  <circle cx="440" cy="370" r="160" fill="#1abc9c" opacity="0.02"/>

  <!-- ========== HEADER ========== -->
  <rect x="0" y="0" width="1200" height="100" fill="#0a0e1a" opacity="0.6"/>
  <text x="600" y="42" text-anchor="middle" font-family="'Segoe UI',Roboto,Helvetica,Arial,sans-serif" font-size="30" fill="#ffffff" font-weight="800" letter-spacing="-0.5">SPIFFE + MCP OAuth</text>
  <text x="600" y="68" text-anchor="middle" font-family="'Segoe UI',Roboto,Helvetica,Arial,sans-serif" font-size="14" fill="#1abc9c" font-weight="500" letter-spacing="4">ZERO-SECRET AUTHENTICATION FOR AI AGENTS</text>
  <rect x="200" y="85" width="800" height="1.5" fill="url(#accentLine)" rx="1"/>
  <text x="600" y="97" text-anchor="middle" font-family="monospace" font-size="10" fill="#ffffff44">github.com/a2z-ice/AAuthSpiffe</text>

  <!-- ========== LEFT: ARCHITECTURE DIAGRAM ========== -->

  <!-- Kind cluster container -->
  <rect x="40" y="118" width="760" height="400" rx="12" fill="url(#cardBg)" stroke="#1e3a5f" stroke-width="1"/>
  <rect x="40" y="118" width="760" height="32" rx="12" fill="#1e3a5f"/>
  <rect x="40" y="138" width="760" height="12" fill="#1e3a5f"/>
  <circle cx="62" cy="134" r="5" fill="#ff5f56"/><circle cx="80" cy="134" r="5" fill="#ffbd2e"/><circle cx="98" cy="134" r="5" fill="#27c93f"/>
  <text x="420" y="138" text-anchor="middle" font-family="monospace" font-size="11" fill="#ffffffcc" font-weight="600">Kind Cluster: spiffe-mcp-demo</text>

  <!-- spire-system namespace -->
  <rect x="56" y="162" width="360" height="340" rx="8" fill="#0c1425" stroke="#1abc9c" stroke-width="1" stroke-opacity="0.4"/>
  <rect x="66" y="156" width="96" height="16" rx="3" fill="#1abc9c"/>
  <text x="114" y="167" text-anchor="middle" font-family="monospace" font-size="9" fill="#fff" font-weight="700">spire-system</text>

  <!-- SPIRE Server -->
  <rect x="72" y="182" width="328" height="42" rx="6" fill="#141e30" stroke="#ef4444" stroke-width="1.2" filter="url(#ds)"/>
  <rect x="72" y="182" width="4" height="42" rx="2" fill="#ef4444"/>
  <text x="90" y="200" font-family="'Segoe UI',sans-serif" font-size="12" fill="#fff" font-weight="700">SPIRE Server</text>
  <text x="90" y="215" font-family="'Segoe UI',sans-serif" font-size="9" fill="#94a3b8">StatefulSet &#x2022; Signs JWT SVIDs &#x2022; Certificate Authority</text>

  <!-- SPIRE Agent -->
  <rect x="72" y="232" width="328" height="42" rx="6" fill="#141e30" stroke="#f59e0b" stroke-width="1.2" filter="url(#ds)"/>
  <rect x="72" y="232" width="4" height="42" rx="2" fill="#f59e0b"/>
  <text x="90" y="250" font-family="'Segoe UI',sans-serif" font-size="12" fill="#fff" font-weight="700">SPIRE Agent</text>
  <text x="90" y="265" font-family="'Segoe UI',sans-serif" font-size="9" fill="#94a3b8">DaemonSet &#x2022; Workload Attestation &#x2022; Delivers SVIDs</text>

  <!-- OIDC Discovery -->
  <rect x="72" y="282" width="328" height="42" rx="6" fill="#141e30" stroke="#1abc9c" stroke-width="1.2" filter="url(#ds)"/>
  <rect x="72" y="282" width="4" height="42" rx="2" fill="#1abc9c"/>
  <text x="90" y="300" font-family="'Segoe UI',sans-serif" font-size="12" fill="#fff" font-weight="700">OIDC Discovery Provider</text>
  <text x="90" y="315" font-family="'Segoe UI',sans-serif" font-size="9" fill="#94a3b8">Serves JWKS &#x2022; /.well-known/openid-configuration</text>

  <!-- CSI + Controller in row -->
  <rect x="72" y="332" width="160" height="36" rx="6" fill="#141e30" stroke="#3b82f6" stroke-width="1" filter="url(#ds)"/>
  <rect x="72" y="332" width="3" height="36" rx="1.5" fill="#3b82f6"/>
  <text x="86" y="354" font-family="'Segoe UI',sans-serif" font-size="10" fill="#93c5fd" font-weight="600">SPIFFE CSI Driver</text>

  <rect x="240" y="332" width="160" height="36" rx="6" fill="#141e30" stroke="#3b82f6" stroke-width="1" filter="url(#ds)"/>
  <rect x="240" y="332" width="3" height="36" rx="1.5" fill="#3b82f6"/>
  <text x="254" y="354" font-family="'Segoe UI',sans-serif" font-size="10" fill="#93c5fd" font-weight="600">Controller Manager</text>

  <!-- HTTP Proxy -->
  <rect x="72" y="376" width="328" height="32" rx="6" fill="#141e30" stroke="#8b5cf6" stroke-width="1" filter="url(#ds)"/>
  <rect x="72" y="376" width="3" height="32" rx="1.5" fill="#8b5cf6"/>
  <text x="86" y="396" font-family="'Segoe UI',sans-serif" font-size="10" fill="#c4b5fd" font-weight="600">HTTP Proxy (OIDC frontend)</text>

  <!-- mcp-demo namespace -->
  <rect x="430" y="162" width="356" height="254" rx="8" fill="#0c1425" stroke="#1abc9c" stroke-width="1" stroke-opacity="0.4"/>
  <rect x="440" y="156" width="76" height="16" rx="3" fill="#1abc9c"/>
  <text x="478" y="167" text-anchor="middle" font-family="monospace" font-size="9" fill="#fff" font-weight="700">mcp-demo</text>

  <!-- Keycloak -->
  <rect x="446" y="182" width="324" height="46" rx="6" fill="#141e30" stroke="#3b82f6" stroke-width="1.2" filter="url(#ds)"/>
  <rect x="446" y="182" width="4" height="46" rx="2" fill="#3b82f6"/>
  <text x="464" y="201" font-family="'Segoe UI',sans-serif" font-size="12" fill="#fff" font-weight="700">Keycloak + SPIFFE SPIs</text>
  <text x="464" y="218" font-family="'Segoe UI',sans-serif" font-size="9" fill="#94a3b8">OAuth2 Authorization Server &#x2022; Custom SVID Auth &#x2022; DCR</text>

  <!-- PostgreSQL -->
  <rect x="446" y="236" width="324" height="36" rx="6" fill="#141e30" stroke="#8b5cf6" stroke-width="1" filter="url(#ds)"/>
  <rect x="446" y="236" width="3" height="36" rx="1.5" fill="#8b5cf6"/>
  <text x="462" y="258" font-family="'Segoe UI',sans-serif" font-size="10" fill="#c4b5fd" font-weight="600">PostgreSQL 16</text>
  <text x="570" y="258" font-family="'Segoe UI',sans-serif" font-size="9" fill="#64748b">Keycloak persistence</text>

  <!-- MCP Client — highlighted -->
  <rect x="446" y="280" width="324" height="46" rx="6" fill="#0f2b2b" stroke="#1abc9c" stroke-width="1.5" filter="url(#ds)"/>
  <rect x="446" y="280" width="4" height="46" rx="2" fill="#1abc9c"/>
  <text x="464" y="299" font-family="'Segoe UI',sans-serif" font-size="12" fill="#1abc9c" font-weight="700">MCP Client (AI Agent)</text>
  <text x="464" y="316" font-family="'Segoe UI',sans-serif" font-size="9" fill="#94a3b8">Python 3.12 &#x2022; Fetches JWT SVID &#x2022; Token exchange</text>

  <!-- MCP Server + Test Runner row -->
  <rect x="446" y="334" width="155" height="32" rx="6" fill="#141e30" stroke="#1e3a5f" stroke-width="1"/>
  <text x="462" y="354" font-family="'Segoe UI',sans-serif" font-size="10" fill="#64748b" font-weight="600">MCP Server</text>
  <rect x="610" y="334" width="160" height="32" rx="6" fill="#141e30" stroke="#1e3a5f" stroke-width="1"/>
  <text x="626" y="354" font-family="'Segoe UI',sans-serif" font-size="10" fill="#64748b" font-weight="600">Test Runner (80)</text>

  <!-- ========== FLOW ARROWS ========== -->

  <!-- OIDC -> Keycloak (dashed, JWKS) -->
  <path d="M 400 303 C 420 303, 430 230, 446 206" fill="none" stroke="#1abc9c" stroke-width="1.5" stroke-dasharray="4,3" opacity="0.7"/>
  <text x="415" y="258" font-family="monospace" font-size="8" fill="#1abc9c" opacity="0.8" transform="rotate(-55,415,258)">JWKS</text>

  <!-- MCP Client -> Keycloak (solid, token) -->
  <line x1="608" y1="280" x2="608" y2="230" stroke="#f59e0b" stroke-width="2" opacity="0.8"/>
  <polygon points="608,230 604,238 612,238" fill="#f59e0b" opacity="0.8"/>
  <text x="616" y="258" font-family="monospace" font-size="8" fill="#f59e0b" opacity="0.8">token</text>

  <!-- CSI -> MCP Client (dashed, SVID) -->
  <path d="M 232 368 C 320 400, 380 380, 446 310" fill="none" stroke="#3b82f6" stroke-width="1.2" stroke-dasharray="4,3" opacity="0.5"/>
  <text x="350" y="398" font-family="monospace" font-size="8" fill="#3b82f6" opacity="0.7">SVID mount</text>

  <!-- ========== TRUST CHAIN (bottom of arch area) ========== -->
  <rect x="56" y="424" width="730" height="84" rx="8" fill="#0c1425" stroke="#1e3a5f" stroke-width="1"/>
  <text x="72" y="442" font-family="'Segoe UI',sans-serif" font-size="9" fill="#64748b" font-weight="600" letter-spacing="2">TRUST CHAIN</text>

  <!-- Pipeline boxes -->
  <rect x="72" y="452" width="90" height="40" rx="6" fill="#ef4444" opacity="0.9"/>
  <text x="117" y="476" text-anchor="middle" font-family="'Segoe UI',sans-serif" font-size="10" fill="#fff" font-weight="700">SPIRE CA</text>
  <text x="172" y="475" font-family="sans-serif" font-size="14" fill="#1abc9c">&#x2192;</text>
  <rect x="185" y="452" width="90" height="40" rx="6" fill="#1abc9c" opacity="0.9"/>
  <text x="230" y="476" text-anchor="middle" font-family="'Segoe UI',sans-serif" font-size="10" fill="#fff" font-weight="700">JWT SVID</text>
  <text x="285" y="475" font-family="sans-serif" font-size="14" fill="#1abc9c">&#x2192;</text>
  <rect x="298" y="452" width="100" height="40" rx="6" fill="#1e3a5f"/>
  <text x="348" y="476" text-anchor="middle" font-family="'Segoe UI',sans-serif" font-size="10" fill="#93c5fd" font-weight="700">OIDC JWKS</text>
  <text x="408" y="475" font-family="sans-serif" font-size="14" fill="#1abc9c">&#x2192;</text>
  <rect x="420" y="452" width="110" height="40" rx="6" fill="#3b82f6" opacity="0.9"/>
  <text x="475" y="476" text-anchor="middle" font-family="'Segoe UI',sans-serif" font-size="10" fill="#fff" font-weight="700">Keycloak SPI</text>
  <text x="540" y="475" font-family="sans-serif" font-size="14" fill="#1abc9c">&#x2192;</text>
  <rect x="553" y="452" width="110" height="40" rx="6" fill="url(#tealGrad)"/>
  <text x="608" y="476" text-anchor="middle" font-family="'Segoe UI',sans-serif" font-size="10" fill="#fff" font-weight="700">Access Token</text>
  <text x="676" y="474" font-family="sans-serif" font-size="16" fill="#22c55e" filter="url(#glow)">&#x2713;</text>
  <text x="696" y="476" font-family="'Segoe UI',sans-serif" font-size="9" fill="#22c55e" font-weight="600">Zero secrets</text>

  <!-- ========== RIGHT: STATS PANEL ========== -->
  <rect x="830" y="118" width="330" height="400" rx="12" fill="url(#cardBg)" stroke="#1e3a5f" stroke-width="1"/>

  <!-- Shield icon -->
  <g transform="translate(995,158)">
    <path d="M0,-30 L24,-18 L24,6 Q24,24 0,34 Q-24,24 -24,6 L-24,-18 Z" fill="#1abc9c" opacity="0.1" stroke="#1abc9c" stroke-width="1.5"/>
    <text x="0" y="6" text-anchor="middle" font-family="sans-serif" font-size="22" fill="#1abc9c" font-weight="700">&#x2713;</text>
  </g>

  <text x="995" y="205" text-anchor="middle" font-family="'Segoe UI',sans-serif" font-size="10" fill="#64748b" font-weight="600" letter-spacing="3">PROJECT METRICS</text>
  <rect x="920" y="215" width="150" height="1" fill="#1e3a5f"/>

  <!-- Stat: Phases -->
  <text x="910" y="260" font-family="'Segoe UI',sans-serif" font-size="42" fill="#1abc9c" font-weight="800">5</text>
  <text x="958" y="248" font-family="'Segoe UI',sans-serif" font-size="12" fill="#94a3b8" font-weight="600">Deployment</text>
  <text x="958" y="263" font-family="'Segoe UI',sans-serif" font-size="12" fill="#94a3b8">Phases</text>

  <!-- Stat: Tests -->
  <text x="898" y="315" font-family="'Segoe UI',sans-serif" font-size="42" fill="#f59e0b" font-weight="800">80</text>
  <text x="958" y="303" font-family="'Segoe UI',sans-serif" font-size="12" fill="#94a3b8" font-weight="600">Automated</text>
  <text x="958" y="318" font-family="'Segoe UI',sans-serif" font-size="12" fill="#94a3b8">Tests (L1-L5)</text>

  <!-- Stat: Secrets -->
  <text x="918" y="370" font-family="'Segoe UI',sans-serif" font-size="42" fill="#ef4444" font-weight="800">0</text>
  <text x="958" y="358" font-family="'Segoe UI',sans-serif" font-size="12" fill="#94a3b8" font-weight="600">Static</text>
  <text x="958" y="373" font-family="'Segoe UI',sans-serif" font-size="12" fill="#94a3b8">Secrets</text>

  <!-- Stat: TTL -->
  <text x="897" y="425" font-family="'Segoe UI',sans-serif" font-size="42" fill="#3b82f6" font-weight="800">5m</text>
  <text x="958" y="413" font-family="'Segoe UI',sans-serif" font-size="12" fill="#94a3b8" font-weight="600">JWT SVID</text>
  <text x="958" y="428" font-family="'Segoe UI',sans-serif" font-size="12" fill="#94a3b8">Time-to-Live</text>

  <!-- Separator -->
  <rect x="870" y="448" width="250" height="1" fill="#1e3a5f"/>

  <!-- Tech stack row -->
  <text x="870" y="474" font-family="'Segoe UI',sans-serif" font-size="9" fill="#64748b" font-weight="600" letter-spacing="2">BUILT WITH</text>
  <rect x="870" y="484" width="50" height="22" rx="4" fill="#ef4444" opacity="0.15" stroke="#ef4444" stroke-width="0.8"/>
  <text x="895" y="499" text-anchor="middle" font-family="monospace" font-size="10" fill="#ef4444">Java</text>
  <rect x="928" y="484" width="38" height="22" rx="4" fill="#3b82f6" opacity="0.15" stroke="#3b82f6" stroke-width="0.8"/>
  <text x="947" y="499" text-anchor="middle" font-family="monospace" font-size="10" fill="#3b82f6">Go</text>
  <rect x="974" y="484" width="60" height="22" rx="4" fill="#f59e0b" opacity="0.15" stroke="#f59e0b" stroke-width="0.8"/>
  <text x="1004" y="499" text-anchor="middle" font-family="monospace" font-size="10" fill="#f59e0b">Python</text>
  <rect x="1042" y="484" width="35" height="22" rx="4" fill="#8b5cf6" opacity="0.15" stroke="#8b5cf6" stroke-width="0.8"/>
  <text x="1060" y="499" text-anchor="middle" font-family="monospace" font-size="10" fill="#8b5cf6">K8s</text>
  <rect x="1085" y="484" width="60" height="22" rx="4" fill="#1abc9c" opacity="0.15" stroke="#1abc9c" stroke-width="0.8"/>
  <text x="1115" y="499" text-anchor="middle" font-family="monospace" font-size="10" fill="#1abc9c">SPIFFE</text>

  <!-- ========== BOTTOM BAR ========== -->
  <rect x="0" y="535" width="1200" height="95" fill="#070b14"/>
  <rect x="0" y="535" width="1200" height="1.5" fill="url(#accentLine)"/>

  <text x="600" y="570" text-anchor="middle" font-family="'Segoe UI',Roboto,Helvetica,Arial,sans-serif" font-size="13" fill="#94a3b8">Implements IETF <tspan fill="#fff" font-weight="600">draft-ietf-oauth-spiffe-client-auth</tspan> with SPIRE, Keycloak 26.2, and MCP Protocol</text>

  <!-- Bottom feature pills -->
  <rect x="260" y="585" width="130" height="28" rx="14" fill="#1abc9c" opacity="0.1" stroke="#1abc9c" stroke-width="0.8"/>
  <text x="325" y="603" text-anchor="middle" font-family="'Segoe UI',sans-serif" font-size="11" fill="#1abc9c" font-weight="600">Workload Identity</text>

  <rect x="405" y="585" width="120" height="28" rx="14" fill="#3b82f6" opacity="0.1" stroke="#3b82f6" stroke-width="0.8"/>
  <text x="465" y="603" text-anchor="middle" font-family="'Segoe UI',sans-serif" font-size="11" fill="#3b82f6" font-weight="600">Auto-Rotation</text>

  <rect x="540" y="585" width="120" height="28" rx="14" fill="#f59e0b" opacity="0.1" stroke="#f59e0b" stroke-width="0.8"/>
  <text x="600" y="603" text-anchor="middle" font-family="'Segoe UI',sans-serif" font-size="11" fill="#f59e0b" font-weight="600">Crypto Verified</text>

  <rect x="675" y="585" width="120" height="28" rx="14" fill="#22c55e" opacity="0.1" stroke="#22c55e" stroke-width="0.8"/>
  <text x="735" y="603" text-anchor="middle" font-family="'Segoe UI',sans-serif" font-size="11" fill="#22c55e" font-weight="600">No Secrets</text>

  <rect x="810" y="585" width="130" height="28" rx="14" fill="#8b5cf6" opacity="0.1" stroke="#8b5cf6" stroke-width="0.8"/>
  <text x="875" y="603" text-anchor="middle" font-family="'Segoe UI',sans-serif" font-size="11" fill="#8b5cf6" font-weight="600">Replay Protected</text>
</svg>
